<?xml version="1.0" encoding="UTF-8" standalone="no"?>
<!-- Created with Inkscape (http://www.inkscape.org/) -->

<svg
   width="96"
   height="96"
   viewBox="0 0 25.399999 25.400001"
   version="1.1"
   id="svg5"
   inkscape:version="1.1 (c4e8f9e, 2021-05-24)"
   sodipodi:docname="hole.svg"
   xmlns:inkscape="http://www.inkscape.org/namespaces/inkscape"
   xmlns:sodipodi="http://sodipodi.sourceforge.net/DTD/sodipodi-0.dtd"
   xmlns="http://www.w3.org/2000/svg"
   xmlns:svg="http://www.w3.org/2000/svg">
  <sodipodi:namedview
     id="namedview7"
     pagecolor="#ffffff"
     bordercolor="#666666"
     borderopacity="1.0"
     inkscape:pageshadow="2"
     inkscape:pageopacity="0.0"
     inkscape:pagecheckerboard="0"
     inkscape:document-units="px"
     showgrid="false"
     inkscape:zoom="8.1746986"
     inkscape:cx="59.390569"
     inkscape:cy="49.910097"
     inkscape:window-width="1312"
     inkscape:window-height="812"
     inkscape:window-x="73"
     inkscape:window-y="26"
     inkscape:window-maximized="0"
     inkscape:current-layer="layer1"
     units="px" />
  <defs
     id="defs2">
    <marker
       style="overflow:visible;"
       id="Arrow1Lend"
       refX="0.0"
       refY="0.0"
       orient="auto"
       inkscape:stockid="Arrow1Lend"
       inkscape:isstock="true">
      <path
         transform="scale(0.8) rotate(180) translate(12.5,0)"
         style="fill-rule:evenodd;fill:context-stroke;stroke:context-stroke;stroke-width:1.0pt;"
         d="M 0.0,0.0 L 5.0,-5.0 L -12.5,0.0 L 5.0,5.0 L 0.0,0.0 z "
         id="path1035" />
    </marker>
  </defs>
  <g
     inkscape:label="Layer 1"
     inkscape:groupmode="layer"
     id="layer1">
    <rect
       style="fill:#f9f9f9;stroke:#000000;stroke-width:0.52916667;stroke-linecap:round;stroke-linejoin:bevel;stroke-miterlimit:4;stroke-dasharray:none;stroke-opacity:1"
       id="rect1022"
       width="15.970214"
       height="15.970214"
       x="6.695416"
       y="6.6405358" />
    <path
       style="fill:#f9f9f9;stroke:#000000;stroke-width:0.52916667;stroke-linecap:butt;stroke-linejoin:bevel;stroke-opacity:1;stroke-miterlimit:4;stroke-dasharray:none"
       d="M 6.6954158,6.6405357 4.3081159,4.2532358 H 20.05004 l 2.61559,2.3872999 z"
       id="path1203"
       sodipodi:nodetypes="ccccc" />
    <path
       style="fill:#f9f9f9;stroke:#000000;stroke-width:0.52916667;stroke-linecap:butt;stroke-linejoin:bevel;stroke-opacity:1;stroke-miterlimit:4;stroke-dasharray:none"
       d="M 4.3081159,4.2532358 6.6954158,6.6405357 V 22.61075 L 4.3196132,20.160598 Z"
       id="path1318"
       sodipodi:nodetypes="ccccc" />
    <g
       id="g1671"
       transform="rotate(-177.35597,13.860697,13.977401)"
       style="fill:#b3b3b3;stroke-width:0.52916667;stroke-miterlimit:4;stroke-dasharray:none;stroke-linejoin:bevel">
      <path
         id="path1475"
         style="fill:#b3b3b3;stroke:#000000;stroke-width:2.00000003;stroke-linecap:round;stroke-linejoin:bevel;stroke-miterlimit:4;stroke-dasharray:none;stroke-opacity:1"
         d="m 64.037109,38.560547 a 18.950257,18.950257 0 0 0 -1.208984,-0.595703 18.950257,18.950257 0 0 0 -1.306641,-0.525391 18.950257,18.950257 0 0 0 -1.34375,-0.427734 18.950257,18.950257 0 0 0 -1.371093,-0.328125 18.950257,18.950257 0 0 0 -1.390625,-0.22461 18.950257,18.950257 0 0 0 -1.404297,-0.11914 18.950257,18.950257 0 0 0 -1.408203,-0.01563 18.950257,18.950257 0 0 0 -1.408204,0.08984 18.950257,18.950257 0 0 0 -1.394531,0.19336 18.950257,18.950257 0 0 0 -1.378906,0.296875 18.950257,18.950257 0 0 0 -1.351563,0.398437 18.950257,18.950257 0 0 0 -1.318359,0.498047 18.950257,18.950257 0 0 0 -1.277344,0.59375 18.950257,18.950257 0 0 0 -1.230468,0.6875 18.950257,18.950257 0 0 0 -1.175782,0.777344 18.950257,18.950257 0 0 0 -1.113281,0.863281 18.950257,18.950257 0 0 0 -1.048828,0.94336 18.950257,18.950257 0 0 0 -0.972656,1.017578 18.950257,18.950257 0 0 0 -0.896485,1.08789 18.950257,18.950257 0 0 0 -0.8125,1.150391 18.950257,18.950257 0 0 0 -0.726562,1.208984 18.950257,18.950257 0 0 0 -0.632813,1.257813 18.950257,18.950257 0 0 0 -0.537109,1.302734 18.950257,18.950257 0 0 0 -0.439453,1.339844 18.950257,18.950257 0 0 0 -0.339844,1.367188 18.950257,18.950257 0 0 0 -0.236328,1.390624 18.950257,18.950257 0 0 0 -0.130859,1.402344 18.950257,18.950257 0 0 0 -0.0293,1.408203 18.950257,18.950257 0 0 0 0.07813,1.408203 18.950257,18.950257 0 0 0 0.18164,1.396485 18.950257,18.950257 0 0 0 0.285157,1.380859 18.950257,18.950257 0 0 0 0.386718,1.355469 18.950257,18.950257 0 0 0 0.486328,1.322266 18.950257,18.950257 0 0 0 0.582032,1.283203 18.950257,18.950257 0 0 0 0.677734,1.236328 18.950257,18.950257 0 0 0 0.765625,1.18164 18.950257,18.950257 0 0 0 0.853516,1.123047 18.950257,18.950257 0 0 0 0.5625,0.634766 18.950257,18.950257 0 0 0 9.117187,2.259766 18.950257,18.950257 0 0 0 18.785156,-18.951172 l -0.01172,-0.664063 A 18.950257,18.950257 0 0 0 64.037109,38.560547 Z"
         transform="scale(0.26458333)" />
      <path
         id="path1666"
         style="fill:#b3b3b3;stroke:#000000;stroke-width:2.00000003;stroke-linecap:round;stroke-linejoin:bevel;stroke-miterlimit:4;stroke-dasharray:none;stroke-opacity:1"
         d="M 49.464844,32.287109 A 18.950257,18.950257 0 0 0 31.015625,51.5625 a 18.950257,18.950257 0 0 0 9.996094,16.359375 18.950257,18.950257 0 0 1 -0.5625,-0.634766 18.950257,18.950257 0 0 1 -0.853516,-1.123047 18.950257,18.950257 0 0 1 -0.765625,-1.18164 18.950257,18.950257 0 0 1 -0.677734,-1.236328 18.950257,18.950257 0 0 1 -0.582032,-1.283203 18.950257,18.950257 0 0 1 -0.486328,-1.322266 18.950257,18.950257 0 0 1 -0.386718,-1.355469 18.950257,18.950257 0 0 1 -0.285157,-1.380859 18.950257,18.950257 0 0 1 -0.18164,-1.396485 18.950257,18.950257 0 0 1 -0.07813,-1.408203 18.950257,18.950257 0 0 1 0.0293,-1.408203 18.950257,18.950257 0 0 1 0.130859,-1.402344 18.950257,18.950257 0 0 1 0.236328,-1.390624 18.950257,18.950257 0 0 1 0.339844,-1.367188 18.950257,18.950257 0 0 1 0.439453,-1.339844 18.950257,18.950257 0 0 1 0.537109,-1.302734 18.950257,18.950257 0 0 1 0.632813,-1.257813 18.950257,18.950257 0 0 1 0.726562,-1.208984 18.950257,18.950257 0 0 1 0.8125,-1.150391 18.950257,18.950257 0 0 1 0.896485,-1.08789 18.950257,18.950257 0 0 1 0.972656,-1.017578 18.950257,18.950257 0 0 1 1.048828,-0.94336 18.950257,18.950257 0 0 1 1.113281,-0.863281 18.950257,18.950257 0 0 1 1.175782,-0.777344 18.950257,18.950257 0 0 1 1.230468,-0.6875 18.950257,18.950257 0 0 1 1.277344,-0.59375 18.950257,18.950257 0 0 1 1.318359,-0.498047 18.950257,18.950257 0 0 1 1.351563,-0.398437 18.950257,18.950257 0 0 1 1.378906,-0.296875 18.950257,18.950257 0 0 1 1.394531,-0.19336 18.950257,18.950257 0 0 1 1.408204,-0.08984 18.950257,18.950257 0 0 1 1.408203,0.01563 18.950257,18.950257 0 0 1 1.404297,0.11914 18.950257,18.950257 0 0 1 1.390625,0.22461 18.950257,18.950257 0 0 1 1.371093,0.328125 18.950257,18.950257 0 0 1 1.34375,0.427734 18.950257,18.950257 0 0 1 1.306641,0.525391 18.950257,18.950257 0 0 1 1.208984,0.595703 18.950257,18.950257 0 0 0 -14.572265,-6.273438 z"
         transform="scale(0.26458333)" />
    </g>
  </g>
</svg>
