<?xml version="1.0" encoding="UTF-8" standalone="no"?>
<!-- Created with Inkscape (http://www.inkscape.org/) -->

<svg
   width="96"
   height="96"
   viewBox="0 0 25.399999 25.400001"
   version="1.1"
   id="svg5"
   inkscape:version="1.1 (c4e8f9e, 2021-05-24)"
   sodipodi:docname="intersection.svg"
   xmlns:inkscape="http://www.inkscape.org/namespaces/inkscape"
   xmlns:sodipodi="http://sodipodi.sourceforge.net/DTD/sodipodi-0.dtd"
   xmlns="http://www.w3.org/2000/svg"
   xmlns:svg="http://www.w3.org/2000/svg">
  <sodipodi:namedview
     id="namedview7"
     pagecolor="#ffffff"
     bordercolor="#666666"
     borderopacity="1.0"
     inkscape:pageshadow="2"
     inkscape:pageopacity="0.0"
     inkscape:pagecheckerboard="0"
     inkscape:document-units="px"
     showgrid="false"
     inkscape:zoom="7.3251455"
     inkscape:cx="48.121911"
     inkscape:cy="48.326685"
     inkscape:window-width="1312"
     inkscape:window-height="812"
     inkscape:window-x="75"
     inkscape:window-y="25"
     inkscape:window-maximized="0"
     inkscape:current-layer="layer1"
     units="px" />
  <defs
     id="defs2">
    <marker
       style="overflow:visible;"
       id="Arrow1Lend"
       refX="0.0"
       refY="0.0"
       orient="auto"
       inkscape:stockid="Arrow1Lend"
       inkscape:isstock="true">
      <path
         transform="scale(0.8) rotate(180) translate(12.5,0)"
         style="fill-rule:evenodd;fill:context-stroke;stroke:context-stroke;stroke-width:1.0pt;"
         d="M 0.0,0.0 L 5.0,-5.0 L -12.5,0.0 L 5.0,5.0 L 0.0,0.0 z "
         id="path1035" />
    </marker>
  </defs>
  <g
     inkscape:label="Layer 1"
     inkscape:groupmode="layer"
     id="layer1">
    <path
       style="fill:#f9f9f9;stroke:#000000;stroke-width:0.52916698;stroke-linecap:round;stroke-linejoin:bevel;stroke-miterlimit:4;stroke-dasharray:2.11666793,2.11666793;stroke-dashoffset:0;stroke-opacity:1"
       id="path123"
       sodipodi:type="arc"
       sodipodi:cx="17.065893"
       sodipodi:cy="12.457865"
       sodipodi:rx="6.5856552"
       sodipodi:ry="6.5856552"
       sodipodi:start="0"
       sodipodi:end="6.2481391"
       sodipodi:open="true"
       sodipodi:arc-type="arc"
       d="M 23.651548,12.457865 A 6.5856552,6.5856552 0 0 1 17.123593,19.043267 6.5856552,6.5856552 0 0 1 10.481249,12.57326 6.5856552,6.5856552 0 0 1 16.892811,5.8744844 6.5856552,6.5856552 0 0 1 23.647504,12.22711" />
    <path
       style="fill:#f9f9f9;stroke:#000000;stroke-width:0.52916698;stroke-linecap:round;stroke-linejoin:bevel;stroke-miterlimit:4;stroke-dasharray:2.11666793,2.11666793;stroke-dashoffset:0;stroke-opacity:1"
       id="path143"
       sodipodi:type="arc"
       sodipodi:cx="8.5650854"
       sodipodi:cy="12.457865"
       sodipodi:rx="6.5856552"
       sodipodi:ry="6.5856552"
       sodipodi:start="0"
       sodipodi:end="6.2481391"
       sodipodi:open="true"
       sodipodi:arc-type="arc"
       d="M 15.150741,12.457865 A 6.5856552,6.5856552 0 0 1 8.6227852,19.043267 6.5856552,6.5856552 0 0 1 1.9804413,12.57326 6.5856552,6.5856552 0 0 1 8.3920037,5.8744844 6.5856552,6.5856552 0 0 1 15.146697,12.22711" />
    <path
       id="path1266"
       style="fill:#b3b3b3;stroke:#000000;stroke-width:2;stroke-linecap:round;stroke-linejoin:bevel;stroke-miterlimit:4;stroke-dasharray:none;stroke-dashoffset:0;stroke-opacity:1"
       d="M 48.556641 27.919922 A 24.890665 24.890665 0 0 0 39.546875 47.521484 A 24.890665 24.890665 0 0 0 48.570312 66.244141 A 24.890665 24.890665 0 0 0 57.589844 47.083984 L 57.574219 46.212891 A 24.890665 24.890665 0 0 0 48.556641 27.919922 z "
       transform="scale(0.26458333)" />
  </g>
</svg>
