<?xml version="1.0" encoding="UTF-8"?>
<!-- Created with Inkscape (http://www.inkscape.org/) -->
<svg width="96" height="96" version="1.1" viewBox="0 0 25.4 25.4" xmlns="http://www.w3.org/2000/svg">
 <g stroke="#000" stroke-width=".52917">
  <path d="m3.3124 21.533 0.074119-7.3466c-0.060067-2.1862 2.0304-4.8484 5.3038-4.9406 3.642-0.10259 8.7716 0.8851 8.8357-1.7231l0.05402-2.4687h5.7575l-0.0067 3.1827c-0.04059 2.9634-3.0256 6.3739-6.9633 6.3739-6.8826-0.14364-7.2985-1.8598-7.2874 6.7604 0.015607 1.1081-1.1514 1.9691-3.0086 1.8911-0.57748-0.04682-2.8683-0.1214-2.7591-1.729z" fill="#b3b3b3"/>
  <path d="m23.339 5.1052a2.8842 1.4519 0 0 1-2.8589 1.4518 2.8842 1.4519 0 0 1-2.909-1.4264 2.8842 1.4519 0 0 1 2.8079-1.4768 2.8842 1.4519 0 0 1 2.9582 1.4005" fill="#f9f9f9" stroke-linecap="round" stroke-linejoin="bevel"/>
  <path d="m23.339 5.1052a2.8842 1.4519 0 0 1-2.8589 1.4518 2.8842 1.4519 0 0 1-2.909-1.4264 2.8842 1.4519 0 0 1 2.8079-1.4768 2.8842 1.4519 0 0 1 2.9582 1.4005" fill="#f9f9f9" stroke-linecap="round" stroke-linejoin="bevel"/>
 </g>
</svg>
