<?xml version="1.0" encoding="UTF-8" standalone="no"?>
<!-- Created with Inkscape (http://www.inkscape.org/) -->

<svg
   width="96"
   height="96"
   viewBox="0 0 25.399999 25.400001"
   version="1.1"
   id="svg5"
   inkscape:version="1.1 (c4e8f9e, 2021-05-24)"
   sodipodi:docname="torus.svg"
   xmlns:inkscape="http://www.inkscape.org/namespaces/inkscape"
   xmlns:sodipodi="http://sodipodi.sourceforge.net/DTD/sodipodi-0.dtd"
   xmlns="http://www.w3.org/2000/svg"
   xmlns:svg="http://www.w3.org/2000/svg">
  <sodipodi:namedview
     id="namedview7"
     pagecolor="#ffffff"
     bordercolor="#666666"
     borderopacity="1.0"
     inkscape:pageshadow="2"
     inkscape:pageopacity="0.0"
     inkscape:pagecheckerboard="0"
     inkscape:document-units="px"
     showgrid="false"
     inkscape:zoom="4.8210844"
     inkscape:cx="42.002998"
     inkscape:cy="58.493064"
     inkscape:window-width="1312"
     inkscape:window-height="812"
     inkscape:window-x="93"
     inkscape:window-y="25"
     inkscape:window-maximized="0"
     inkscape:current-layer="layer1"
     units="px" />
  <defs
     id="defs2">
    <marker
       style="overflow:visible;"
       id="Arrow1Lend"
       refX="0.0"
       refY="0.0"
       orient="auto"
       inkscape:stockid="Arrow1Lend"
       inkscape:isstock="true">
      <path
         transform="scale(0.8) rotate(180) translate(12.5,0)"
         style="fill-rule:evenodd;fill:context-stroke;stroke:context-stroke;stroke-width:1.0pt;"
         d="M 0.0,0.0 L 5.0,-5.0 L -12.5,0.0 L 5.0,5.0 L 0.0,0.0 z "
         id="path1035" />
    </marker>
  </defs>
  <g
     inkscape:label="Layer 1"
     inkscape:groupmode="layer"
     id="layer1">
    <path
       id="path1028"
       style="fill:#999999;stroke:#000000;stroke-width:2;stroke-linecap:round;stroke-linejoin:bevel;stroke-miterlimit:4;stroke-dasharray:none"
       d="M 47.984375 11.693359 A 35.557893 35.557893 0 0 0 46.595703 11.703125 A 35.557893 35.557893 0 0 0 11.978516 47.871094 A 35.557893 35.557893 0 0 0 47.841797 82.804688 A 35.557893 35.557893 0 0 0 83.087891 47.248047 L 83.066406 46.001953 A 35.557893 35.557893 0 0 0 47.984375 11.693359 z M 47.253906 37.753906 A 9.3339995 9.3339995 0 0 1 56.828125 46.757812 L 56.833984 47.083984 A 9.3339995 9.3339995 0 0 1 47.582031 56.417969 A 9.3339995 9.3339995 0 0 1 38.167969 47.248047 A 9.3339995 9.3339995 0 0 1 47.253906 37.753906 z "
       transform="scale(0.26458333)" />
  </g>
</svg>
