<?xml version="1.0" encoding="UTF-8" standalone="no"?>
<!-- Created with Inkscape (http://www.inkscape.org/) -->

<svg
   width="96"
   height="96"
   viewBox="0 0 25.399999 25.400001"
   version="1.1"
   id="svg5"
   inkscape:version="1.1 (c4e8f9e, 2021-05-24)"
   sodipodi:docname="union.svg"
   xmlns:inkscape="http://www.inkscape.org/namespaces/inkscape"
   xmlns:sodipodi="http://sodipodi.sourceforge.net/DTD/sodipodi-0.dtd"
   xmlns="http://www.w3.org/2000/svg"
   xmlns:svg="http://www.w3.org/2000/svg">
  <sodipodi:namedview
     id="namedview7"
     pagecolor="#ffffff"
     bordercolor="#666666"
     borderopacity="1.0"
     inkscape:pageshadow="2"
     inkscape:pageopacity="0.0"
     inkscape:pagecheckerboard="0"
     inkscape:document-units="px"
     showgrid="false"
     inkscape:zoom="7.3251455"
     inkscape:cx="45.118557"
     inkscape:cy="50.510942"
     inkscape:window-width="1312"
     inkscape:window-height="812"
     inkscape:window-x="54"
     inkscape:window-y="36"
     inkscape:window-maximized="0"
     inkscape:current-layer="layer1"
     units="px" />
  <defs
     id="defs2">
    <marker
       style="overflow:visible;"
       id="Arrow1Lend"
       refX="0.0"
       refY="0.0"
       orient="auto"
       inkscape:stockid="Arrow1Lend"
       inkscape:isstock="true">
      <path
         transform="scale(0.8) rotate(180) translate(12.5,0)"
         style="fill-rule:evenodd;fill:context-stroke;stroke:context-stroke;stroke-width:1.0pt;"
         d="M 0.0,0.0 L 5.0,-5.0 L -12.5,0.0 L 5.0,5.0 L 0.0,0.0 z "
         id="path1035" />
    </marker>
  </defs>
  <g
     inkscape:label="Layer 1"
     inkscape:groupmode="layer"
     id="layer1">
    <path
       id="path123"
       style="fill:#b3b3b3;stroke:#000000;stroke-width:2;stroke-linecap:round;stroke-linejoin:bevel;stroke-miterlimit:4;stroke-dasharray:none;stroke-dashoffset:0;stroke-opacity:1"
       d="M 31.71875 22.203125 A 24.890665 24.890665 0 0 0 7.484375 47.521484 A 24.890665 24.890665 0 0 0 32.589844 71.974609 A 24.890665 24.890665 0 0 0 48.4375 66.076172 A 24.890665 24.890665 0 0 0 64.71875 71.974609 A 24.890665 24.890665 0 0 0 89.392578 47.083984 L 89.376953 46.212891 A 24.890665 24.890665 0 0 0 63.847656 22.203125 A 24.890665 24.890665 0 0 0 48.429688 28.083984 A 24.890665 24.890665 0 0 0 31.71875 22.203125 z "
       transform="scale(0.26458333)" />
    <path
       id="path1266"
       style="fill:#b3b3b3;stroke:#000000;stroke-width:0.52916698;stroke-linecap:round;stroke-linejoin:bevel;stroke-miterlimit:4;stroke-dasharray:1.58750095,1.58750095;stroke-dashoffset:0;stroke-opacity:1"
       d="m 12.813654,7.430554 a 6.585655,6.585655 0 0 0 -2.383834,5.186247 6.585655,6.585655 0 0 0 2.387451,4.953703 6.585655,6.585655 0 0 0 2.386418,-5.069458 l -0.0041,-0.230477 A 6.585655,6.585655 0 0 0 12.813688,7.430554 Z" />
  </g>
</svg>
