<?xml version="1.0" encoding="UTF-8"?>
<!-- Created with Inkscape (http://www.inkscape.org/) -->
<svg width="96" height="96" version="1.1" viewBox="0 0 25.4 25.4" xmlns="http://www.w3.org/2000/svg">
 <g stroke="#000" stroke-linecap="round" stroke-linejoin="bevel" stroke-width=".52917">
  <path d="m15.237 12.458a6.5857 6.5857 0 0 1-6.528 6.5854 6.5857 6.5857 0 0 1-6.6423-6.47 6.5857 6.5857 0 0 1 6.4116-6.6988 6.5857 6.5857 0 0 1 6.7547 6.3526" fill="#b3b3b3"/>
  <path d="m23.634 12.458a6.5857 6.5857 0 0 1-6.528 6.5854 6.5857 6.5857 0 0 1-6.6423-6.47 6.5857 6.5857 0 0 1 6.4116-6.6988 6.5857 6.5857 0 0 1 6.7547 6.3526" fill="none"/>
 </g>
</svg>
