<?xml version="1.0" encoding="UTF-8"?>
<!-- Created with Inkscape (http://www.inkscape.org/) -->
<svg width="96" height="96" version="1.1" viewBox="0 0 25.4 25.4" xmlns="http://www.w3.org/2000/svg">
 <g stroke="#000" stroke-linecap="round" stroke-linejoin="bevel" stroke-width=".52917">
  <path d="m8.5417 12.685a3.3751 3.3751 0 0 1-3.3456 3.375 3.3751 3.3751 0 0 1-3.4042-3.3159 3.3751 3.3751 0 0 1 3.2859-3.4331 3.3751 3.3751 0 0 1 3.4618 3.2557" fill="#f9f9f9"/>
  <g fill="#b3b3b3">
   <path d="m14.637 20.623a3.3751 3.3751 0 0 1-3.3456 3.375 3.3751 3.3751 0 0 1-3.4042-3.3159 3.3751 3.3751 0 0 1 3.2859-3.4331 3.3751 3.3751 0 0 1 3.4618 3.2557"/>
   <path d="m14.802 4.5629a3.3751 3.3751 0 0 1-3.3456 3.375 3.3751 3.3751 0 0 1-3.4042-3.3159 3.3751 3.3751 0 0 1 3.2859-3.4331 3.3751 3.3751 0 0 1 3.4618 3.2557"/>
   <path d="m24.826 17.53a3.3751 3.3751 0 0 1-3.3456 3.375 3.3751 3.3751 0 0 1-3.4042-3.3159 3.3751 3.3751 0 0 1 3.2859-3.4331 3.3751 3.3751 0 0 1 3.4618 3.2557"/>
   <path d="m24.771 7.7656a3.3751 3.3751 0 0 1-3.3456 3.375 3.3751 3.3751 0 0 1-3.4042-3.3159 3.3751 3.3751 0 0 1 3.2859-3.4331 3.3751 3.3751 0 0 1 3.4618 3.2557"/>
  </g>
 </g>
</svg>
